<mxfile host="app.diagrams.net" modified="2023-05-24T12:09:16.041Z" agent="Mozilla/5.0 (Windows NT 10.0; Win64; x64) AppleWebKit/537.36 (KHTML, like Gecko) Chrome/113.0.0.0 Safari/537.36" etag="MElnSbh9lSPQTqA8IytJ" version="21.3.3" type="device">
  <diagram id="677RJHBFE4EjfL2PIw1s" name="Страница 1">
    <mxGraphModel dx="1790" dy="885" grid="0" gridSize="10" guides="1" tooltips="1" connect="1" arrows="1" fold="1" page="0" pageScale="1" pageWidth="1654" pageHeight="1169" math="0" shadow="0">
      <root>
        <mxCell id="0" />
        <mxCell id="1" parent="0" />
        <mxCell id="PXV3ohP48C4_PZCZACCz-81" value="" style="rounded=0;whiteSpace=wrap;html=1;labelBackgroundColor=#FFFFFF;fontSize=8;fillColor=default;" parent="1" vertex="1">
          <mxGeometry x="315" y="42" width="947" height="1244" as="geometry" />
        </mxCell>
        <mxCell id="PXV3ohP48C4_PZCZACCz-83" value="&lt;b style=&quot;font-size: 24px;&quot;&gt;&lt;i style=&quot;font-size: 24px;&quot;&gt;&lt;font style=&quot;font-size: 24px;&quot;&gt;Система управления складом&lt;/font&gt;&lt;/i&gt;&lt;/b&gt;" style="text;html=1;strokeColor=none;fillColor=none;align=center;verticalAlign=middle;whiteSpace=wrap;rounded=0;labelBackgroundColor=#FFFFFF;fontSize=24;fontFamily=Times New Roman;" parent="1" vertex="1">
          <mxGeometry x="999" y="61" width="259" height="30" as="geometry" />
        </mxCell>
        <mxCell id="UxDNWM6CONCW11zJ59up-1" value="Добавление &lt;br style=&quot;font-size: 24px;&quot;&gt;товара" style="ellipse;whiteSpace=wrap;html=1;fontFamily=Times New Roman;fontSize=24;" parent="1" vertex="1">
          <mxGeometry x="347" y="72" width="140" height="101.5" as="geometry" />
        </mxCell>
        <mxCell id="UxDNWM6CONCW11zJ59up-2" value="Обновление &lt;br style=&quot;font-size: 24px;&quot;&gt;товара" style="ellipse;whiteSpace=wrap;html=1;fontFamily=Times New Roman;fontSize=24;" parent="1" vertex="1">
          <mxGeometry x="484" y="217" width="155" height="95" as="geometry" />
        </mxCell>
        <mxCell id="UxDNWM6CONCW11zJ59up-3" value="Отгрузка товара" style="ellipse;whiteSpace=wrap;html=1;fontFamily=Times New Roman;fontSize=24;" parent="1" vertex="1">
          <mxGeometry x="380.5" y="522" width="155" height="67" as="geometry" />
        </mxCell>
        <mxCell id="UxDNWM6CONCW11zJ59up-4" value="Восстановление&lt;br style=&quot;font-size: 24px;&quot;&gt;товара" style="ellipse;whiteSpace=wrap;html=1;fontFamily=Times New Roman;fontSize=24;" parent="1" vertex="1">
          <mxGeometry x="670" y="177" width="201" height="92" as="geometry" />
        </mxCell>
        <mxCell id="UxDNWM6CONCW11zJ59up-5" value="Поиск товаров" style="ellipse;whiteSpace=wrap;html=1;fontFamily=Times New Roman;fontSize=24;" parent="1" vertex="1">
          <mxGeometry x="1048" y="727" width="182" height="67" as="geometry" />
        </mxCell>
        <mxCell id="UxDNWM6CONCW11zJ59up-6" value="Фильтрация &lt;br style=&quot;font-size: 24px;&quot;&gt;товаров" style="ellipse;whiteSpace=wrap;html=1;fontFamily=Times New Roman;fontSize=24;" parent="1" vertex="1">
          <mxGeometry x="1035" y="817" width="173" height="68" as="geometry" />
        </mxCell>
        <mxCell id="UxDNWM6CONCW11zJ59up-7" value="Просмотр списка&lt;br style=&quot;font-size: 24px;&quot;&gt;товаров" style="ellipse;whiteSpace=wrap;html=1;fontFamily=Times New Roman;fontSize=24;" parent="1" vertex="1">
          <mxGeometry x="360" y="864" width="216" height="98" as="geometry" />
        </mxCell>
        <mxCell id="UxDNWM6CONCW11zJ59up-8" value="Просмотр товара" style="ellipse;whiteSpace=wrap;html=1;fontFamily=Times New Roman;fontSize=24;" parent="1" vertex="1">
          <mxGeometry x="815" y="652" width="170" height="70" as="geometry" />
        </mxCell>
        <mxCell id="UxDNWM6CONCW11zJ59up-9" value="Добавление &lt;br style=&quot;font-size: 24px;&quot;&gt;сотрудника" style="ellipse;whiteSpace=wrap;html=1;fontFamily=Times New Roman;fontSize=24;" parent="1" vertex="1">
          <mxGeometry x="1100" y="529" width="154" height="93" as="geometry" />
        </mxCell>
        <mxCell id="UxDNWM6CONCW11zJ59up-10" value="Удаление &lt;br style=&quot;font-size: 24px;&quot;&gt;сотрудника" style="ellipse;whiteSpace=wrap;html=1;fontSize=24;fontFamily=Times New Roman;" parent="1" vertex="1">
          <mxGeometry x="1084" y="352" width="150" height="81" as="geometry" />
        </mxCell>
        <mxCell id="UxDNWM6CONCW11zJ59up-11" value="Обновление &lt;br style=&quot;font-size: 24px;&quot;&gt;сотрудника" style="ellipse;whiteSpace=wrap;html=1;fontFamily=Times New Roman;fontSize=24;" parent="1" vertex="1">
          <mxGeometry x="1050" y="630" width="178" height="78" as="geometry" />
        </mxCell>
        <mxCell id="UxDNWM6CONCW11zJ59up-12" value="Просмотр списка сотрудников" style="ellipse;whiteSpace=wrap;html=1;fontFamily=Times New Roman;fontSize=24;" parent="1" vertex="1">
          <mxGeometry x="744" y="463" width="208" height="88" as="geometry" />
        </mxCell>
        <mxCell id="UxDNWM6CONCW11zJ59up-13" value="Просмотр списка&lt;br style=&quot;font-size: 24px;&quot;&gt;отгруженных товаров" style="ellipse;whiteSpace=wrap;html=1;fontFamily=Times New Roman;fontSize=24;" parent="1" vertex="1">
          <mxGeometry x="369" y="627" width="212" height="142" as="geometry" />
        </mxCell>
        <mxCell id="UxDNWM6CONCW11zJ59up-14" value="Создание задачи" style="ellipse;whiteSpace=wrap;html=1;fontFamily=Times New Roman;fontSize=24;" parent="1" vertex="1">
          <mxGeometry x="634" y="334" width="194" height="65" as="geometry" />
        </mxCell>
        <mxCell id="UxDNWM6CONCW11zJ59up-15" value="Просмотр доски&lt;br style=&quot;font-size: 24px;&quot;&gt;задач" style="ellipse;whiteSpace=wrap;html=1;fontFamily=Times New Roman;fontSize=24;" parent="1" vertex="1">
          <mxGeometry x="356" y="977" width="204" height="88" as="geometry" />
        </mxCell>
        <mxCell id="UxDNWM6CONCW11zJ59up-16" value="Комментирование &lt;br style=&quot;font-size: 24px;&quot;&gt;задачи" style="ellipse;whiteSpace=wrap;html=1;fontFamily=Times New Roman;fontSize=24;" parent="1" vertex="1">
          <mxGeometry x="1024" y="1002" width="213" height="108" as="geometry" />
        </mxCell>
        <mxCell id="UxDNWM6CONCW11zJ59up-17" value="Обновление&lt;br style=&quot;font-size: 24px;&quot;&gt;задачи" style="ellipse;whiteSpace=wrap;html=1;fontFamily=Times New Roman;fontSize=24;" parent="1" vertex="1">
          <mxGeometry x="595.25" y="418" width="181.75" height="65" as="geometry" />
        </mxCell>
        <mxCell id="UxDNWM6CONCW11zJ59up-18" value="Назначение задачи" style="ellipse;whiteSpace=wrap;html=1;fontFamily=Times New Roman;fontSize=24;" parent="1" vertex="1">
          <mxGeometry x="832" y="365" width="191" height="64" as="geometry" />
        </mxCell>
        <mxCell id="UxDNWM6CONCW11zJ59up-19" value="Изменение &lt;br style=&quot;font-size: 24px;&quot;&gt;статуса задачи" style="ellipse;whiteSpace=wrap;html=1;fontFamily=Times New Roman;fontSize=24;" parent="1" vertex="1">
          <mxGeometry x="675" y="1047" width="209" height="68" as="geometry" />
        </mxCell>
        <mxCell id="UxDNWM6CONCW11zJ59up-20" value="Удаление задачи" style="ellipse;whiteSpace=wrap;html=1;fontFamily=Times New Roman;fontSize=24;" parent="1" vertex="1">
          <mxGeometry x="893" y="230" width="164" height="82" as="geometry" />
        </mxCell>
        <mxCell id="UxDNWM6CONCW11zJ59up-22" value="Просмотр словарей" style="ellipse;whiteSpace=wrap;html=1;fontFamily=Times New Roman;fontSize=24;" parent="1" vertex="1">
          <mxGeometry x="351" y="1091" width="168" height="72" as="geometry" />
        </mxCell>
        <mxCell id="UxDNWM6CONCW11zJ59up-23" value="Просмотр адресной системы" style="ellipse;whiteSpace=wrap;html=1;fontFamily=Times New Roman;fontSize=24;" parent="1" vertex="1">
          <mxGeometry x="585" y="551" width="248" height="96" as="geometry" />
        </mxCell>
        <mxCell id="UxDNWM6CONCW11zJ59up-24" value="Просмотр настроек системы" style="ellipse;whiteSpace=wrap;html=1;fontFamily=Times New Roman;fontSize=24;" parent="1" vertex="1">
          <mxGeometry x="516" y="58" width="183" height="107" as="geometry" />
        </mxCell>
        <mxCell id="UxDNWM6CONCW11zJ59up-25" value="Обновление настроек системы" style="ellipse;whiteSpace=wrap;html=1;fontFamily=Times New Roman;fontSize=24;" parent="1" vertex="1">
          <mxGeometry x="990" y="127" width="257" height="79" as="geometry" />
        </mxCell>
        <mxCell id="5gmopuk7FULBQtef6R4t-1" value="Подтверждение готовности задачи" style="ellipse;whiteSpace=wrap;html=1;fontFamily=Times New Roman;fontSize=24;" parent="1" vertex="1">
          <mxGeometry x="336" y="1181" width="223" height="86" as="geometry" />
        </mxCell>
        <mxCell id="5gmopuk7FULBQtef6R4t-4" value="" style="endArrow=none;html=1;rounded=0;entryX=0;entryY=0.5;entryDx=0;entryDy=0;exitX=1;exitY=0.3333333333333333;exitDx=0;exitDy=0;exitPerimeter=0;" parent="1" source="PXV3ohP48C4_PZCZACCz-30" target="UxDNWM6CONCW11zJ59up-7" edge="1">
          <mxGeometry width="50" height="50" relative="1" as="geometry">
            <mxPoint x="283" y="595" as="sourcePoint" />
            <mxPoint x="333" y="545" as="targetPoint" />
          </mxGeometry>
        </mxCell>
        <mxCell id="5gmopuk7FULBQtef6R4t-5" value="" style="endArrow=none;html=1;rounded=0;entryX=0;entryY=0.5;entryDx=0;entryDy=0;exitX=1;exitY=0.3333333333333333;exitDx=0;exitDy=0;exitPerimeter=0;" parent="1" source="PXV3ohP48C4_PZCZACCz-1" target="UxDNWM6CONCW11zJ59up-13" edge="1">
          <mxGeometry width="50" height="50" relative="1" as="geometry">
            <mxPoint x="283" y="595" as="sourcePoint" />
            <mxPoint x="333" y="545" as="targetPoint" />
          </mxGeometry>
        </mxCell>
        <mxCell id="5gmopuk7FULBQtef6R4t-7" value="&lt;font style=&quot;font-size: 24px;&quot;&gt;&amp;lt;&amp;lt;Расширить&amp;gt;&amp;gt;&lt;/font&gt;" style="endArrow=open;endSize=6;dashed=1;html=1;rounded=0;entryX=0.5;entryY=0;entryDx=0;entryDy=0;exitX=0;exitY=0.5;exitDx=0;exitDy=0;fontSize=24;fontFamily=Times New Roman;labelBackgroundColor=default;" parent="1" source="UxDNWM6CONCW11zJ59up-8" target="UxDNWM6CONCW11zJ59up-7" edge="1">
          <mxGeometry x="0.5825" y="-4" width="160" relative="1" as="geometry">
            <mxPoint x="83" y="604" as="sourcePoint" />
            <mxPoint x="243" y="604" as="targetPoint" />
            <mxPoint as="offset" />
          </mxGeometry>
        </mxCell>
        <mxCell id="5gmopuk7FULBQtef6R4t-8" value="&lt;font style=&quot;font-size: 24px;&quot;&gt;&amp;lt;&amp;lt;Расширить&amp;gt;&amp;gt;&lt;/font&gt;" style="endArrow=open;endSize=6;dashed=1;html=1;rounded=0;entryX=1;entryY=0;entryDx=0;entryDy=0;exitX=0;exitY=0.5;exitDx=0;exitDy=0;fontFamily=Times New Roman;fontSize=24;labelBackgroundColor=default;" parent="1" source="UxDNWM6CONCW11zJ59up-5" target="UxDNWM6CONCW11zJ59up-7" edge="1">
          <mxGeometry x="0.4765" y="4" width="160" relative="1" as="geometry">
            <mxPoint x="591" y="617" as="sourcePoint" />
            <mxPoint x="541" y="694" as="targetPoint" />
            <mxPoint as="offset" />
          </mxGeometry>
        </mxCell>
        <mxCell id="5gmopuk7FULBQtef6R4t-9" value="&lt;font style=&quot;font-size: 24px;&quot;&gt;&amp;lt;&amp;lt;Расширить&amp;gt;&amp;gt;&lt;/font&gt;" style="endArrow=open;endSize=6;dashed=1;html=1;rounded=0;entryX=1;entryY=0.5;entryDx=0;entryDy=0;exitX=0;exitY=0.5;exitDx=0;exitDy=0;fontFamily=Times New Roman;fontSize=24;" parent="1" source="UxDNWM6CONCW11zJ59up-6" target="UxDNWM6CONCW11zJ59up-7" edge="1">
          <mxGeometry x="0.3271" y="2" width="160" relative="1" as="geometry">
            <mxPoint x="695" y="701" as="sourcePoint" />
            <mxPoint x="539" y="701" as="targetPoint" />
            <mxPoint as="offset" />
          </mxGeometry>
        </mxCell>
        <mxCell id="5gmopuk7FULBQtef6R4t-10" value="" style="endArrow=none;html=1;rounded=0;entryX=0;entryY=0.5;entryDx=0;entryDy=0;exitX=1;exitY=0.3333333333333333;exitDx=0;exitDy=0;exitPerimeter=0;" parent="1" source="PXV3ohP48C4_PZCZACCz-2" target="5gmopuk7FULBQtef6R4t-1" edge="1">
          <mxGeometry width="50" height="50" relative="1" as="geometry">
            <mxPoint x="286" y="762" as="sourcePoint" />
            <mxPoint x="407" y="806" as="targetPoint" />
          </mxGeometry>
        </mxCell>
        <mxCell id="5gmopuk7FULBQtef6R4t-11" value="" style="endArrow=block;endSize=6;endFill=0;html=1;rounded=0;exitX=0.5;exitY=0;exitDx=0;exitDy=0;exitPerimeter=0;" parent="1" source="PXV3ohP48C4_PZCZACCz-2" edge="1">
          <mxGeometry width="160" relative="1" as="geometry">
            <mxPoint x="113" y="734" as="sourcePoint" />
            <mxPoint x="255" y="672" as="targetPoint" />
          </mxGeometry>
        </mxCell>
        <mxCell id="5gmopuk7FULBQtef6R4t-12" value="" style="endArrow=block;endSize=6;endFill=0;html=1;rounded=0;entryX=0.5;entryY=0;entryDx=0;entryDy=0;entryPerimeter=0;" parent="1" source="PXV3ohP48C4_PZCZACCz-1" target="PXV3ohP48C4_PZCZACCz-30" edge="1">
          <mxGeometry width="160" relative="1" as="geometry">
            <mxPoint x="184" y="650" as="sourcePoint" />
            <mxPoint x="184" y="520" as="targetPoint" />
          </mxGeometry>
        </mxCell>
        <mxCell id="PXV3ohP48C4_PZCZACCz-1" value="&lt;span style=&quot;background-color: rgb(255, 255, 255); font-size: 24px;&quot;&gt;Администратор&lt;/span&gt;" style="shape=umlActor;verticalLabelPosition=bottom;verticalAlign=top;html=1;outlineConnect=0;fillColor=default;fontFamily=Times New Roman;fontSize=24;" parent="1" vertex="1">
          <mxGeometry x="236" y="404" width="41" height="79" as="geometry" />
        </mxCell>
        <mxCell id="5gmopuk7FULBQtef6R4t-13" value="&lt;font style=&quot;font-size: 24px;&quot;&gt;&amp;lt;&amp;lt;Расширить&amp;gt;&amp;gt;&lt;/font&gt;" style="endArrow=open;endSize=6;dashed=1;html=1;rounded=0;exitX=0;exitY=0.5;exitDx=0;exitDy=0;fontFamily=Times New Roman;fontSize=24;" parent="1" source="UxDNWM6CONCW11zJ59up-8" target="UxDNWM6CONCW11zJ59up-13" edge="1">
          <mxGeometry width="160" relative="1" as="geometry">
            <mxPoint x="624" y="554" as="sourcePoint" />
            <mxPoint x="463" y="614" as="targetPoint" />
          </mxGeometry>
        </mxCell>
        <mxCell id="5gmopuk7FULBQtef6R4t-14" value="&lt;font style=&quot;font-size: 24px;&quot;&gt;&amp;lt;&amp;lt;Расширить&amp;gt;&amp;gt;&lt;/font&gt;" style="endArrow=open;endSize=6;dashed=1;html=1;rounded=0;entryX=1.001;entryY=0.553;entryDx=0;entryDy=0;exitX=0;exitY=0.5;exitDx=0;exitDy=0;fontFamily=Times New Roman;fontSize=24;labelBackgroundColor=default;entryPerimeter=0;" parent="1" source="UxDNWM6CONCW11zJ59up-5" target="UxDNWM6CONCW11zJ59up-13" edge="1">
          <mxGeometry x="-0.3213" y="5" width="160" relative="1" as="geometry">
            <mxPoint x="653" y="645" as="sourcePoint" />
            <mxPoint x="506" y="549" as="targetPoint" />
            <mxPoint x="-1" as="offset" />
          </mxGeometry>
        </mxCell>
        <mxCell id="5gmopuk7FULBQtef6R4t-15" value="&lt;font style=&quot;font-size: 24px;&quot;&gt;&amp;lt;&amp;lt;Расширить&amp;gt;&amp;gt;&lt;/font&gt;" style="endArrow=open;endSize=6;dashed=1;html=1;rounded=0;entryX=1;entryY=1;entryDx=0;entryDy=0;exitX=0;exitY=0.5;exitDx=0;exitDy=0;fontFamily=Times New Roman;fontSize=24;labelBackgroundColor=default;" parent="1" source="UxDNWM6CONCW11zJ59up-6" target="UxDNWM6CONCW11zJ59up-13" edge="1">
          <mxGeometry x="-0.0409" y="2" width="160" relative="1" as="geometry">
            <mxPoint x="662" y="742.5" as="sourcePoint" />
            <mxPoint x="488" y="561.5" as="targetPoint" />
            <mxPoint y="-1" as="offset" />
          </mxGeometry>
        </mxCell>
        <mxCell id="5gmopuk7FULBQtef6R4t-16" value="Просмотр задачи" style="ellipse;whiteSpace=wrap;html=1;fontFamily=Times New Roman;fontSize=24;" parent="1" vertex="1">
          <mxGeometry x="837" y="881.5" width="159" height="63" as="geometry" />
        </mxCell>
        <mxCell id="5gmopuk7FULBQtef6R4t-17" value="" style="endArrow=none;html=1;rounded=0;entryX=0;entryY=0.5;entryDx=0;entryDy=0;exitX=1;exitY=0.3333333333333333;exitDx=0;exitDy=0;exitPerimeter=0;" parent="1" source="PXV3ohP48C4_PZCZACCz-30" target="UxDNWM6CONCW11zJ59up-15" edge="1">
          <mxGeometry width="50" height="50" relative="1" as="geometry">
            <mxPoint x="281" y="683" as="sourcePoint" />
            <mxPoint x="402" y="727" as="targetPoint" />
          </mxGeometry>
        </mxCell>
        <mxCell id="5gmopuk7FULBQtef6R4t-18" value="" style="endArrow=none;html=1;rounded=0;entryX=0;entryY=0.5;entryDx=0;entryDy=0;exitX=1;exitY=0.3333333333333333;exitDx=0;exitDy=0;exitPerimeter=0;" parent="1" source="PXV3ohP48C4_PZCZACCz-30" target="UxDNWM6CONCW11zJ59up-22" edge="1">
          <mxGeometry width="50" height="50" relative="1" as="geometry">
            <mxPoint x="275" y="674" as="sourcePoint" />
            <mxPoint x="391" y="814" as="targetPoint" />
          </mxGeometry>
        </mxCell>
        <mxCell id="5gmopuk7FULBQtef6R4t-19" value="&lt;font style=&quot;font-size: 24px;&quot;&gt;&amp;lt;&amp;lt;Расширить&amp;gt;&amp;gt;&lt;/font&gt;" style="endArrow=open;endSize=6;dashed=1;html=1;rounded=0;entryX=1;entryY=0.5;entryDx=0;entryDy=0;exitX=0;exitY=0.5;exitDx=0;exitDy=0;fontFamily=Times New Roman;fontSize=24;" parent="1" source="5gmopuk7FULBQtef6R4t-16" target="UxDNWM6CONCW11zJ59up-15" edge="1">
          <mxGeometry width="160" relative="1" as="geometry">
            <mxPoint x="804" y="776" as="sourcePoint" />
            <mxPoint x="521" y="718" as="targetPoint" />
          </mxGeometry>
        </mxCell>
        <mxCell id="5gmopuk7FULBQtef6R4t-20" value="&lt;font style=&quot;font-size: 24px;&quot;&gt;&amp;lt;&amp;lt;Расширить&amp;gt;&amp;gt;&lt;/font&gt;" style="endArrow=open;endSize=6;dashed=1;html=1;rounded=0;entryX=1;entryY=1;entryDx=0;entryDy=0;exitX=0;exitY=0.5;exitDx=0;exitDy=0;fontFamily=Times New Roman;fontSize=24;" parent="1" source="UxDNWM6CONCW11zJ59up-16" target="5gmopuk7FULBQtef6R4t-16" edge="1">
          <mxGeometry x="0.1753" width="160" relative="1" as="geometry">
            <mxPoint x="715" y="857" as="sourcePoint" />
            <mxPoint x="432" y="799" as="targetPoint" />
            <mxPoint as="offset" />
          </mxGeometry>
        </mxCell>
        <mxCell id="5gmopuk7FULBQtef6R4t-21" value="&lt;font style=&quot;font-size: 24px;&quot;&gt;&amp;lt;&amp;lt;Включить&amp;gt;&amp;gt;&lt;/font&gt;" style="endArrow=open;endSize=6;dashed=1;html=1;rounded=0;entryX=0;entryY=1;entryDx=0;entryDy=0;exitX=1;exitY=0.5;exitDx=0;exitDy=0;fontFamily=Times New Roman;fontSize=24;" parent="1" source="5gmopuk7FULBQtef6R4t-1" target="UxDNWM6CONCW11zJ59up-19" edge="1">
          <mxGeometry x="0.0004" width="160" relative="1" as="geometry">
            <mxPoint x="711" y="1008" as="sourcePoint" />
            <mxPoint x="616" y="991" as="targetPoint" />
            <mxPoint as="offset" />
          </mxGeometry>
        </mxCell>
        <mxCell id="5gmopuk7FULBQtef6R4t-22" value="&lt;font style=&quot;font-size: 24px;&quot;&gt;&amp;lt;&amp;lt;Расширить&amp;gt;&amp;gt;&lt;/font&gt;" style="endArrow=open;endSize=6;dashed=1;html=1;rounded=0;entryX=0.5;entryY=1;entryDx=0;entryDy=0;exitX=0.5;exitY=0;exitDx=0;exitDy=0;fontFamily=Times New Roman;fontSize=24;" parent="1" source="UxDNWM6CONCW11zJ59up-19" target="5gmopuk7FULBQtef6R4t-16" edge="1">
          <mxGeometry x="-0.3828" y="-2" width="160" relative="1" as="geometry">
            <mxPoint x="846" y="846" as="sourcePoint" />
            <mxPoint x="751" y="829" as="targetPoint" />
            <mxPoint as="offset" />
          </mxGeometry>
        </mxCell>
        <mxCell id="5gmopuk7FULBQtef6R4t-23" value="" style="endArrow=none;html=1;rounded=0;entryX=0.039;entryY=0.701;entryDx=0;entryDy=0;exitX=1;exitY=0.3333333333333333;exitDx=0;exitDy=0;exitPerimeter=0;entryPerimeter=0;" parent="1" source="PXV3ohP48C4_PZCZACCz-30" target="UxDNWM6CONCW11zJ59up-23" edge="1">
          <mxGeometry width="50" height="50" relative="1" as="geometry">
            <mxPoint x="303" y="584" as="sourcePoint" />
            <mxPoint x="424" y="628" as="targetPoint" />
          </mxGeometry>
        </mxCell>
        <mxCell id="5gmopuk7FULBQtef6R4t-27" value="" style="endArrow=none;html=1;rounded=0;entryX=0;entryY=1;entryDx=0;entryDy=0;exitX=1;exitY=0.3333333333333333;exitDx=0;exitDy=0;exitPerimeter=0;" parent="1" source="PXV3ohP48C4_PZCZACCz-1" target="UxDNWM6CONCW11zJ59up-1" edge="1">
          <mxGeometry width="50" height="50" relative="1" as="geometry">
            <mxPoint x="375" y="392" as="sourcePoint" />
            <mxPoint x="488" y="435" as="targetPoint" />
          </mxGeometry>
        </mxCell>
        <mxCell id="5gmopuk7FULBQtef6R4t-28" value="" style="endArrow=none;html=1;rounded=0;entryX=0.03;entryY=0.718;entryDx=0;entryDy=0;exitX=1;exitY=0.3333333333333333;exitDx=0;exitDy=0;exitPerimeter=0;entryPerimeter=0;" parent="1" source="PXV3ohP48C4_PZCZACCz-1" target="UxDNWM6CONCW11zJ59up-2" edge="1">
          <mxGeometry width="50" height="50" relative="1" as="geometry">
            <mxPoint x="271" y="444" as="sourcePoint" />
            <mxPoint x="715" y="339" as="targetPoint" />
          </mxGeometry>
        </mxCell>
        <mxCell id="5gmopuk7FULBQtef6R4t-29" value="" style="endArrow=none;html=1;rounded=0;entryX=0;entryY=0.5;entryDx=0;entryDy=0;exitX=1;exitY=0.3333333333333333;exitDx=0;exitDy=0;exitPerimeter=0;" parent="1" source="PXV3ohP48C4_PZCZACCz-1" target="UxDNWM6CONCW11zJ59up-3" edge="1">
          <mxGeometry width="50" height="50" relative="1" as="geometry">
            <mxPoint x="280" y="454" as="sourcePoint" />
            <mxPoint x="855" y="385" as="targetPoint" />
          </mxGeometry>
        </mxCell>
        <mxCell id="5gmopuk7FULBQtef6R4t-31" value="" style="endArrow=none;html=1;rounded=0;entryX=0.5;entryY=1;entryDx=0;entryDy=0;exitX=1;exitY=0.3333333333333333;exitDx=0;exitDy=0;exitPerimeter=0;" parent="1" source="PXV3ohP48C4_PZCZACCz-1" target="UxDNWM6CONCW11zJ59up-4" edge="1">
          <mxGeometry width="50" height="50" relative="1" as="geometry">
            <mxPoint x="279" y="453" as="sourcePoint" />
            <mxPoint x="740" y="343" as="targetPoint" />
          </mxGeometry>
        </mxCell>
        <mxCell id="5gmopuk7FULBQtef6R4t-32" value="" style="endArrow=none;html=1;rounded=0;entryX=0;entryY=0.5;entryDx=0;entryDy=0;exitX=1;exitY=0.3333333333333333;exitDx=0;exitDy=0;exitPerimeter=0;" parent="1" source="PXV3ohP48C4_PZCZACCz-1" target="UxDNWM6CONCW11zJ59up-12" edge="1">
          <mxGeometry width="50" height="50" relative="1" as="geometry">
            <mxPoint x="282" y="470.5" as="sourcePoint" />
            <mxPoint x="388" y="347.5" as="targetPoint" />
          </mxGeometry>
        </mxCell>
        <mxCell id="5gmopuk7FULBQtef6R4t-33" value="&lt;font style=&quot;font-size: 24px;&quot;&gt;&amp;lt;&amp;lt;Расширить&amp;gt;&amp;gt;&lt;/font&gt;" style="endArrow=open;endSize=6;dashed=1;html=1;rounded=0;exitX=0;exitY=1;exitDx=0;exitDy=0;entryX=0.991;entryY=0.441;entryDx=0;entryDy=0;entryPerimeter=0;fontFamily=Times New Roman;fontSize=24;" parent="1" source="UxDNWM6CONCW11zJ59up-10" target="UxDNWM6CONCW11zJ59up-12" edge="1">
          <mxGeometry x="-0.1753" y="3" width="160" relative="1" as="geometry">
            <mxPoint x="675" y="278" as="sourcePoint" />
            <mxPoint x="920" y="475" as="targetPoint" />
            <mxPoint as="offset" />
          </mxGeometry>
        </mxCell>
        <mxCell id="5gmopuk7FULBQtef6R4t-34" value="&lt;font style=&quot;font-size: 24px;&quot;&gt;&amp;lt;&amp;lt;Расширить&amp;gt;&amp;gt;&lt;/font&gt;" style="endArrow=open;endSize=6;dashed=1;html=1;rounded=0;entryX=0.964;entryY=0.68;entryDx=0;entryDy=0;exitX=0;exitY=0.5;exitDx=0;exitDy=0;entryPerimeter=0;fontFamily=Times New Roman;fontSize=24;" parent="1" source="UxDNWM6CONCW11zJ59up-9" target="UxDNWM6CONCW11zJ59up-12" edge="1">
          <mxGeometry x="0.092" y="3" width="160" relative="1" as="geometry">
            <mxPoint x="719" y="275" as="sourcePoint" />
            <mxPoint x="675" y="336" as="targetPoint" />
            <mxPoint y="1" as="offset" />
          </mxGeometry>
        </mxCell>
        <mxCell id="5gmopuk7FULBQtef6R4t-35" value="&lt;font style=&quot;font-size: 24px;&quot;&gt;&amp;lt;&amp;lt;Расширить&amp;gt;&amp;gt;&lt;/font&gt;" style="endArrow=open;endSize=6;dashed=1;html=1;rounded=0;entryX=0.652;entryY=0.971;entryDx=0;entryDy=0;exitX=0.048;exitY=0.282;exitDx=0;exitDy=0;entryPerimeter=0;exitPerimeter=0;fontFamily=Times New Roman;fontSize=24;" parent="1" source="UxDNWM6CONCW11zJ59up-11" target="UxDNWM6CONCW11zJ59up-12" edge="1">
          <mxGeometry x="-0.1353" y="4" width="160" relative="1" as="geometry">
            <mxPoint x="783" y="301" as="sourcePoint" />
            <mxPoint x="672" y="326" as="targetPoint" />
            <mxPoint x="-1" as="offset" />
          </mxGeometry>
        </mxCell>
        <mxCell id="5gmopuk7FULBQtef6R4t-36" value="" style="endArrow=none;html=1;rounded=0;entryX=0.246;entryY=0.937;entryDx=0;entryDy=0;exitX=1;exitY=0.3333333333333333;exitDx=0;exitDy=0;exitPerimeter=0;entryPerimeter=0;" parent="1" source="PXV3ohP48C4_PZCZACCz-1" target="UxDNWM6CONCW11zJ59up-24" edge="1">
          <mxGeometry width="50" height="50" relative="1" as="geometry">
            <mxPoint x="280" y="454" as="sourcePoint" />
            <mxPoint x="364" y="319" as="targetPoint" />
          </mxGeometry>
        </mxCell>
        <mxCell id="5gmopuk7FULBQtef6R4t-37" value="&lt;font style=&quot;font-size: 24px;&quot;&gt;&amp;lt;&amp;lt;Расширить&amp;gt;&amp;gt;&lt;/font&gt;" style="endArrow=open;endSize=6;dashed=1;html=1;rounded=0;entryX=1;entryY=0.5;entryDx=0;entryDy=0;exitX=0;exitY=0.5;exitDx=0;exitDy=0;fontFamily=Times New Roman;fontSize=24;" parent="1" source="UxDNWM6CONCW11zJ59up-25" target="UxDNWM6CONCW11zJ59up-24" edge="1">
          <mxGeometry width="160" relative="1" as="geometry">
            <mxPoint x="699" y="244" as="sourcePoint" />
            <mxPoint x="655" y="305" as="targetPoint" />
          </mxGeometry>
        </mxCell>
        <mxCell id="5gmopuk7FULBQtef6R4t-38" value="" style="endArrow=none;html=1;rounded=0;entryX=0;entryY=0.5;entryDx=0;entryDy=0;exitX=1;exitY=0.3333333333333333;exitDx=0;exitDy=0;exitPerimeter=0;" parent="1" source="PXV3ohP48C4_PZCZACCz-1" target="UxDNWM6CONCW11zJ59up-14" edge="1">
          <mxGeometry width="50" height="50" relative="1" as="geometry">
            <mxPoint x="270" y="444" as="sourcePoint" />
            <mxPoint x="638" y="353" as="targetPoint" />
          </mxGeometry>
        </mxCell>
        <mxCell id="5gmopuk7FULBQtef6R4t-39" value="" style="endArrow=none;html=1;rounded=0;entryX=0;entryY=0.5;entryDx=0;entryDy=0;exitX=1;exitY=0.3333333333333333;exitDx=0;exitDy=0;exitPerimeter=0;" parent="1" source="PXV3ohP48C4_PZCZACCz-1" target="UxDNWM6CONCW11zJ59up-17" edge="1">
          <mxGeometry width="50" height="50" relative="1" as="geometry">
            <mxPoint x="280" y="454" as="sourcePoint" />
            <mxPoint x="619" y="395" as="targetPoint" />
          </mxGeometry>
        </mxCell>
        <mxCell id="5gmopuk7FULBQtef6R4t-40" value="" style="endArrow=none;html=1;rounded=0;entryX=0;entryY=0.5;entryDx=0;entryDy=0;exitX=1;exitY=0.3333333333333333;exitDx=0;exitDy=0;exitPerimeter=0;" parent="1" source="PXV3ohP48C4_PZCZACCz-1" target="UxDNWM6CONCW11zJ59up-20" edge="1">
          <mxGeometry width="50" height="50" relative="1" as="geometry">
            <mxPoint x="280" y="454" as="sourcePoint" />
            <mxPoint x="712" y="443" as="targetPoint" />
          </mxGeometry>
        </mxCell>
        <mxCell id="5gmopuk7FULBQtef6R4t-41" value="" style="endArrow=none;html=1;rounded=0;entryX=0;entryY=0.5;entryDx=0;entryDy=0;exitX=1;exitY=0.3333333333333333;exitDx=0;exitDy=0;exitPerimeter=0;" parent="1" source="PXV3ohP48C4_PZCZACCz-1" target="UxDNWM6CONCW11zJ59up-18" edge="1">
          <mxGeometry width="50" height="50" relative="1" as="geometry">
            <mxPoint x="280" y="454" as="sourcePoint" />
            <mxPoint x="619" y="395" as="targetPoint" />
          </mxGeometry>
        </mxCell>
        <mxCell id="5gmopuk7FULBQtef6R4t-42" value="Уведомление&lt;br style=&quot;font-size: 24px;&quot;&gt;администратора об изменении статуса задачи" style="ellipse;whiteSpace=wrap;html=1;fontFamily=Times New Roman;fontSize=24;" parent="1" vertex="1">
          <mxGeometry x="1000" y="1124" width="237" height="146" as="geometry" />
        </mxCell>
        <mxCell id="5gmopuk7FULBQtef6R4t-43" value="&lt;font style=&quot;font-size: 24px;&quot;&gt;&amp;lt;&amp;lt;Включить&amp;gt;&amp;gt;&lt;/font&gt;" style="endArrow=open;endSize=6;dashed=1;html=1;rounded=0;entryX=0;entryY=0;entryDx=0;entryDy=0;exitX=1;exitY=0.5;exitDx=0;exitDy=0;fontFamily=Times New Roman;fontSize=24;" parent="1" source="UxDNWM6CONCW11zJ59up-19" target="5gmopuk7FULBQtef6R4t-42" edge="1">
          <mxGeometry x="0.0875" y="-1" width="160" relative="1" as="geometry">
            <mxPoint x="549" y="955" as="sourcePoint" />
            <mxPoint x="646" y="944" as="targetPoint" />
            <mxPoint as="offset" />
          </mxGeometry>
        </mxCell>
        <mxCell id="5gmopuk7FULBQtef6R4t-44" value="Изменение местоположения товара" style="ellipse;whiteSpace=wrap;html=1;fontFamily=Times New Roman;fontSize=24;" parent="1" vertex="1">
          <mxGeometry x="780.31" y="1157" width="187.69" height="117" as="geometry" />
        </mxCell>
        <mxCell id="5gmopuk7FULBQtef6R4t-45" value="&lt;font style=&quot;font-size: 24px;&quot;&gt;&amp;lt;&amp;lt;Включить&amp;gt;&amp;gt;&lt;/font&gt;" style="endArrow=open;endSize=6;dashed=1;html=1;rounded=0;entryX=0;entryY=0.5;entryDx=0;entryDy=0;exitX=0.985;exitY=0.627;exitDx=0;exitDy=0;exitPerimeter=0;fontFamily=Times New Roman;fontSize=24;" parent="1" source="5gmopuk7FULBQtef6R4t-1" target="5gmopuk7FULBQtef6R4t-44" edge="1">
          <mxGeometry width="160" relative="1" as="geometry">
            <mxPoint x="549" y="955" as="sourcePoint" />
            <mxPoint x="762" y="899" as="targetPoint" />
          </mxGeometry>
        </mxCell>
        <mxCell id="PXV3ohP48C4_PZCZACCz-2" value="&lt;span style=&quot;font-size: 24px;&quot;&gt;Аудитор&lt;/span&gt;" style="shape=umlActor;verticalLabelPosition=bottom;verticalAlign=top;html=1;outlineConnect=0;fontFamily=Times New Roman;fontSize=24;labelBackgroundColor=default;" parent="1" vertex="1">
          <mxGeometry x="237" y="851" width="39" height="79" as="geometry" />
        </mxCell>
        <mxCell id="PXV3ohP48C4_PZCZACCz-30" value="&lt;span style=&quot;font-size: 24px;&quot;&gt;Рабочий&lt;/span&gt;" style="shape=umlActor;verticalLabelPosition=bottom;verticalAlign=top;html=1;outlineConnect=0;fontFamily=Times New Roman;fontSize=24;labelBackgroundColor=default;" parent="1" vertex="1">
          <mxGeometry x="237" y="601" width="36" height="79" as="geometry" />
        </mxCell>
      </root>
    </mxGraphModel>
  </diagram>
</mxfile>
